<mxfile host="app.diagrams.net" modified="2022-04-12T22:09:39.448Z" agent="5.0 (X11)" etag="VC4x3uqyoZgdOmv_pxwA" version="15.3.5" type="github">
  <diagram id="prtHgNgQTEPvFCAcTncT" name="Page-1">
    <mxGraphModel dx="1408" dy="777" grid="1" gridSize="10" guides="1" tooltips="1" connect="1" arrows="1" fold="1" page="1" pageScale="1" pageWidth="1169" pageHeight="827" math="0" shadow="0">
      <root>
        <mxCell id="0" />
        <mxCell id="1" parent="0" />
        <mxCell id="xjCurn-9ngpd2HKyaU8U-10" value="&lt;pre&gt;&lt;b&gt;&lt;font style=&quot;font-size: 19px&quot;&gt;Repositório local&lt;/font&gt;&lt;/b&gt;&lt;/pre&gt;" style="swimlane;childLayout=stackLayout;horizontal=1;startSize=50;horizontalStack=0;rounded=1;fontSize=14;fontStyle=0;strokeWidth=2;resizeParent=0;resizeLast=1;shadow=1;dashed=0;align=center;hachureGap=4;pointerEvents=0;labelBackgroundColor=none;html=1;fillColor=#CCCCCC;" parent="1" vertex="1">
          <mxGeometry x="30" y="70" width="710" height="460" as="geometry" />
        </mxCell>
        <mxCell id="xjCurn-9ngpd2HKyaU8U-2" value="&lt;pre&gt;Diretório&lt;br&gt;de trabalho&lt;br&gt;&lt;/pre&gt;" style="verticalLabelPosition=middle;verticalAlign=top;html=1;shape=mxgraph.infographic.numberedEntryVert;dy=25;strokeColor=none;fontSize=17;fontColor=#FFFFFF;align=center;labelPosition=center;spacingTop=32;fontStyle=1;fillColor=#10739E;hachureGap=4;pointerEvents=0;shadow=1;" parent="1" vertex="1">
          <mxGeometry x="60" y="130" width="158.0952380952381" height="384" as="geometry" />
        </mxCell>
        <mxCell id="xjCurn-9ngpd2HKyaU8U-3" value="&lt;div&gt;&lt;pre&gt;Área de preparo&lt;br&gt;(Staging Area)&lt;/pre&gt;&lt;/div&gt;" style="verticalLabelPosition=middle;verticalAlign=top;html=1;shape=mxgraph.infographic.numberedEntryVert;dy=25;strokeColor=none;fontSize=17;fontColor=#FFFFFF;align=center;labelPosition=center;spacingTop=32;fontStyle=1;fillColor=#F2931E;hachureGap=4;pointerEvents=0;shadow=1;" parent="1" vertex="1">
          <mxGeometry x="307.9761904761905" y="130" width="158.0952380952381" height="384" as="geometry" />
        </mxCell>
        <mxCell id="xjCurn-9ngpd2HKyaU8U-4" value="&lt;pre&gt;Repositório&lt;/pre&gt;" style="verticalLabelPosition=middle;verticalAlign=top;html=1;shape=mxgraph.infographic.numberedEntryVert;dy=25;strokeColor=none;fontSize=17;fontColor=#FFFFFF;align=center;labelPosition=center;spacingTop=32;fontStyle=1;fillColor=#AE4132;hachureGap=4;pointerEvents=0;shadow=1;" parent="1" vertex="1">
          <mxGeometry x="551.952380952381" y="130" width="158.0952380952381" height="384" as="geometry" />
        </mxCell>
        <mxCell id="xjCurn-9ngpd2HKyaU8U-6" value="&lt;div&gt;&lt;pre&gt;Repositório&lt;br&gt;remoto&lt;/pre&gt;&lt;/div&gt;" style="verticalLabelPosition=middle;verticalAlign=top;html=1;shape=mxgraph.infographic.numberedEntryVert;dy=25;strokeColor=#432D57;fontSize=17;fontColor=#ffffff;align=center;labelPosition=center;spacingTop=32;fontStyle=1;fillColor=#76608a;hachureGap=4;pointerEvents=0;shadow=1;" parent="1" vertex="1">
          <mxGeometry x="840.9047619047619" y="130" width="158.0952380952381" height="384" as="geometry" />
        </mxCell>
        <mxCell id="xjCurn-9ngpd2HKyaU8U-9" value="&lt;div align=&quot;justify&quot;&gt;&lt;pre&gt;&lt;b&gt;&lt;font style=&quot;font-size: 15px&quot; color=&quot;#FFFFFF&quot;&gt;Arquivos &lt;br&gt;modificados, &lt;br&gt;excluídos, &lt;br&gt;adicionados, &lt;br&gt;etc.&lt;/font&gt;&lt;/b&gt;&lt;/pre&gt;&lt;/div&gt;" style="text;html=1;strokeColor=none;fillColor=none;align=center;verticalAlign=middle;whiteSpace=wrap;rounded=0;hachureGap=4;pointerEvents=0;" parent="1" vertex="1">
          <mxGeometry x="90" y="400" width="90" height="70" as="geometry" />
        </mxCell>
        <mxCell id="xjCurn-9ngpd2HKyaU8U-12" value="&lt;pre style=&quot;font-size: 19px&quot;&gt;&lt;font color=&quot;#FFFFFF&quot;&gt;&lt;b&gt;&lt;font style=&quot;font-size: 19px&quot;&gt;git add&lt;/font&gt;&lt;/b&gt;&lt;/font&gt;&lt;/pre&gt;" style="html=1;shadow=1;dashed=0;align=center;verticalAlign=middle;shape=mxgraph.arrows2.arrow;dy=0.41;dx=66.33;notch=0;hachureGap=4;pointerEvents=0;labelBackgroundColor=none;fillColor=#8F8981;sketch=0;strokeColor=none;" parent="1" vertex="1">
          <mxGeometry x="190" y="280" width="160" height="80" as="geometry" />
        </mxCell>
        <mxCell id="xjCurn-9ngpd2HKyaU8U-13" value="&lt;pre style=&quot;font-size: 19px&quot;&gt;&lt;font color=&quot;#FFFFFF&quot;&gt;&lt;b&gt;&lt;font style=&quot;font-size: 19px&quot;&gt;git commit&lt;/font&gt;&lt;/b&gt;&lt;/font&gt;&lt;/pre&gt;" style="html=1;shadow=1;dashed=0;align=center;verticalAlign=middle;shape=mxgraph.arrows2.arrow;dy=0.41;dx=66.33;notch=0;hachureGap=4;pointerEvents=0;labelBackgroundColor=none;fillColor=#8F8981;sketch=0;strokeColor=none;" parent="1" vertex="1">
          <mxGeometry x="429" y="282" width="160" height="80" as="geometry" />
        </mxCell>
        <mxCell id="xjCurn-9ngpd2HKyaU8U-17" value="" style="shape=image;html=1;verticalAlign=top;verticalLabelPosition=bottom;labelBackgroundColor=#ffffff;imageAspect=0;aspect=fixed;image=https://cdn1.iconfinder.com/data/icons/fs-icons-ubuntu-by-franksouza-/128/inode-directory.png;hachureGap=4;pointerEvents=0;shadow=1;sketch=0;strokeColor=#FFFFFF;fillColor=#FFB366;gradientColor=none;" parent="1" vertex="1">
          <mxGeometry x="142" y="240" width="48" height="48" as="geometry" />
        </mxCell>
        <mxCell id="xjCurn-9ngpd2HKyaU8U-19" value="" style="shape=image;html=1;verticalAlign=top;verticalLabelPosition=bottom;labelBackgroundColor=#ffffff;imageAspect=0;aspect=fixed;image=https://cdn4.iconfinder.com/data/icons/pc_de_hamburg_icon_pack/32x32/administrative-docs.png;hachureGap=4;pointerEvents=0;shadow=1;sketch=0;strokeColor=#FFFFFF;fillColor=#FFB366;gradientColor=none;" parent="1" vertex="1">
          <mxGeometry x="78" y="270" width="50" height="50" as="geometry" />
        </mxCell>
        <mxCell id="xjCurn-9ngpd2HKyaU8U-21" value="" style="shape=image;html=1;verticalAlign=top;verticalLabelPosition=bottom;labelBackgroundColor=#ffffff;imageAspect=0;aspect=fixed;image=https://cdn4.iconfinder.com/data/icons/Aire%20PNGs/128/Files/Images.png;hachureGap=4;pointerEvents=0;shadow=1;sketch=0;strokeColor=#FFFFFF;fillColor=#FFB366;gradientColor=none;" parent="1" vertex="1">
          <mxGeometry x="122" y="302" width="58" height="58" as="geometry" />
        </mxCell>
        <mxCell id="xjCurn-9ngpd2HKyaU8U-22" value="&lt;div align=&quot;justify&quot;&gt;&lt;pre&gt;&lt;b&gt;&lt;font style=&quot;font-size: 15px&quot; color=&quot;#FFFFFF&quot;&gt;Arquivos &lt;br&gt;adicionados &lt;br&gt;e preparados &lt;br&gt;para serem &lt;br&gt;versionados&lt;/font&gt;&lt;/b&gt;&lt;/pre&gt;&lt;/div&gt;" style="text;html=1;strokeColor=none;fillColor=none;align=center;verticalAlign=middle;whiteSpace=wrap;rounded=0;hachureGap=4;pointerEvents=0;" parent="1" vertex="1">
          <mxGeometry x="335" y="398" width="90" height="70" as="geometry" />
        </mxCell>
        <mxCell id="xjCurn-9ngpd2HKyaU8U-23" value="&lt;div align=&quot;justify&quot;&gt;&lt;pre&gt;&lt;b&gt;&lt;font style=&quot;font-size: 15px&quot; color=&quot;#FFFFFF&quot;&gt;Arquivos &lt;br&gt;salvos&lt;br&gt;&lt;/font&gt;&lt;/b&gt;&lt;/pre&gt;&lt;/div&gt;" style="text;html=1;strokeColor=none;fillColor=none;align=center;verticalAlign=middle;whiteSpace=wrap;rounded=0;hachureGap=4;pointerEvents=0;" parent="1" vertex="1">
          <mxGeometry x="589" y="398" width="90" height="70" as="geometry" />
        </mxCell>
        <mxCell id="xjCurn-9ngpd2HKyaU8U-24" value="&lt;pre&gt;&lt;font style=&quot;font-size: 23px&quot;&gt;git add README.md&lt;/font&gt;&lt;/pre&gt;" style="text;html=1;strokeColor=none;fillColor=none;align=center;verticalAlign=middle;whiteSpace=wrap;rounded=0;shadow=1;labelBackgroundColor=none;sketch=0;hachureGap=4;pointerEvents=0;" parent="1" vertex="1">
          <mxGeometry x="145" y="560" width="250" height="20" as="geometry" />
        </mxCell>
        <mxCell id="xjCurn-9ngpd2HKyaU8U-25" value="&lt;pre&gt;&lt;font style=&quot;font-size: 23px&quot;&gt;git commit -m &quot;novo arquivo README.md&quot;&lt;/font&gt;&lt;/pre&gt;" style="text;html=1;strokeColor=none;fillColor=none;align=center;verticalAlign=middle;whiteSpace=wrap;rounded=0;shadow=1;labelBackgroundColor=none;sketch=0;hachureGap=4;pointerEvents=0;" parent="1" vertex="1">
          <mxGeometry x="420" y="560" width="520" height="20" as="geometry" />
        </mxCell>
        <mxCell id="7sNANExe6HozmJ2loKir-1" value="&lt;pre&gt;&lt;b&gt;&lt;font style=&quot;font-size: 19px&quot;&gt;Repositório remoto&lt;/font&gt;&lt;/b&gt;&lt;/pre&gt;" style="swimlane;childLayout=stackLayout;horizontal=1;startSize=50;horizontalStack=0;rounded=1;fontSize=14;fontStyle=0;strokeWidth=2;resizeParent=0;resizeLast=1;shadow=1;dashed=0;align=center;hachureGap=4;pointerEvents=0;labelBackgroundColor=none;html=1;fillColor=#CCCCCC;" vertex="1" parent="1">
          <mxGeometry x="806" y="70" width="230" height="460" as="geometry" />
        </mxCell>
        <mxCell id="7sNANExe6HozmJ2loKir-2" value="&lt;pre style=&quot;font-size: 19px&quot;&gt;&lt;font color=&quot;#FFFFFF&quot;&gt;&lt;b&gt;&lt;font style=&quot;font-size: 19px&quot;&gt;git push&lt;/font&gt;&lt;/b&gt;&lt;/font&gt;&lt;/pre&gt;" style="html=1;shadow=1;dashed=0;align=center;verticalAlign=middle;shape=mxgraph.arrows2.arrow;dy=0.41;dx=66.33;notch=0;hachureGap=4;pointerEvents=0;labelBackgroundColor=none;fillColor=#8F8981;sketch=0;strokeColor=none;" vertex="1" parent="1">
          <mxGeometry x="660" y="282" width="210.05" height="80" as="geometry" />
        </mxCell>
        <mxCell id="7sNANExe6HozmJ2loKir-6" value="" style="group" vertex="1" connectable="0" parent="1">
          <mxGeometry x="662" y="370" width="210.04999999999995" height="80" as="geometry" />
        </mxCell>
        <mxCell id="7sNANExe6HozmJ2loKir-3" value="" style="html=1;shadow=1;dashed=0;align=center;verticalAlign=middle;shape=mxgraph.arrows2.arrow;dy=0.41;dx=66.33;notch=0;hachureGap=4;pointerEvents=0;labelBackgroundColor=none;fillColor=#8F8981;sketch=0;strokeColor=none;rotation=-180;direction=east;" vertex="1" parent="7sNANExe6HozmJ2loKir-6">
          <mxGeometry width="210.05" height="80" as="geometry" />
        </mxCell>
        <mxCell id="7sNANExe6HozmJ2loKir-5" value="&lt;pre style=&quot;font-size: 19px&quot;&gt;&lt;font color=&quot;#FFFFFF&quot;&gt;&lt;b&gt;&lt;font style=&quot;font-size: 19px&quot;&gt;git fetch&lt;/font&gt;&lt;/b&gt;&lt;/font&gt;&lt;/pre&gt;" style="text;html=1;strokeColor=none;fillColor=none;align=center;verticalAlign=middle;whiteSpace=wrap;rounded=0;shadow=1;sketch=0;hachureGap=4;pointerEvents=0;container=1;" vertex="1" parent="7sNANExe6HozmJ2loKir-6">
          <mxGeometry x="58" y="24" width="110.05" height="32" as="geometry" />
        </mxCell>
        <mxCell id="7sNANExe6HozmJ2loKir-8" value="&lt;pre&gt;&lt;font style=&quot;font-size: 23px&quot;&gt;git push -u origin master&lt;/font&gt;&lt;/pre&gt;" style="text;html=1;strokeColor=none;fillColor=none;align=center;verticalAlign=middle;whiteSpace=wrap;rounded=0;shadow=1;labelBackgroundColor=none;sketch=0;hachureGap=4;pointerEvents=0;" vertex="1" parent="1">
          <mxGeometry x="420" y="630" width="360" height="20" as="geometry" />
        </mxCell>
        <mxCell id="7sNANExe6HozmJ2loKir-9" value="&lt;pre&gt;&lt;font style=&quot;font-size: 23px&quot;&gt;git fetch origin&lt;/font&gt;&lt;/pre&gt;" style="text;html=1;strokeColor=none;fillColor=none;align=center;verticalAlign=middle;whiteSpace=wrap;rounded=0;shadow=1;labelBackgroundColor=none;sketch=0;hachureGap=4;pointerEvents=0;" vertex="1" parent="1">
          <mxGeometry x="429" y="690" width="360" height="20" as="geometry" />
        </mxCell>
      </root>
    </mxGraphModel>
  </diagram>
</mxfile>
